<?xml version="1.0" encoding="UTF-8" standalone="no" ?>
<!DOCTYPE svg PUBLIC "-//W3C//DTD SVG 1.1//EN" "http://www.w3.org/Graphics/SVG/1.1/DTD/svg11.dtd">
<svg xmlns="http://www.w3.org/2000/svg" xmlns:xlink="http://www.w3.org/1999/xlink" version="1.1" width="500" height="500" viewBox="0 0 500 500" xml:space="preserve">
<desc>Created with Fabric.js 4.6.0</desc>
<defs>
</defs>
<g transform="matrix(1 0 0 1 380.48 158.29)" id="Ei8FauTusoMY3RgoeQqBK"  >
<path style="stroke: rgb(0,0,0); stroke-width: 1; stroke-dasharray: none; stroke-linecap: butt; stroke-dashoffset: 0; stroke-linejoin: miter; stroke-miterlimit: 4; fill: rgb(255,255,255); fill-opacity: 0; fill-rule: nonzero; opacity: 1;" vector-effect="non-scaling-stroke"  transform=" translate(0, 0)" d="M 0 0" stroke-linecap="round" />
</g>
<g transform="matrix(1 0 0 1 257.8 227.01)" id="WFIVOsmnVmuXCENUwgaLB"  >
<path style="stroke: rgb(0,0,0); stroke-width: 0; stroke-dasharray: none; stroke-linecap: butt; stroke-dashoffset: 0; stroke-linejoin: miter; stroke-miterlimit: 4; fill: rgb(240,99,184); fill-rule: nonzero; opacity: 0.1;" vector-effect="non-scaling-stroke"  transform=" translate(0, 0)" d="M 79.26773 -43.5553 C 79.02386 -55.15908 69.54737 -64.4385 57.94103 -64.4385 L -38.49083 -64.4385 L -38.49083 -64.4385 C -44.704390000000004 -64.4385 -50.17087 -60.33388000000001 -51.90401 -54.36692000000001 L -80.44703 43.90262999999999 L -80.44703 43.90262999999999 C -81.85588 48.75309999999999 -80.90033 53.98377999999999 -77.86751 58.02283999999999 C -74.83469 62.06189999999999 -70.07815 64.43851 -65.02721 64.43851 L 59.75569 64.43851 L 59.75569 64.43851 C 65.49012 64.43851 70.98298 62.12940999999999 74.99501000000001 58.03218 C 79.00704 53.93495 81.20021000000001 48.39478 81.07972000000001 42.66162 z" stroke-linecap="round" />
</g>
</svg>